<?xml version="1.0" standalone="no"?>
<!DOCTYPE svg PUBLIC "-//W3C//DTD SVG 20010904//EN"
 "http://www.w3.org/TR/2001/REC-SVG-20010904/DTD/svg10.dtd">
<svg version="1.0" xmlns="http://www.w3.org/2000/svg"
 width="500.000000pt" height="500.000000pt" viewBox="0 0 500.000000 500.000000"
 preserveAspectRatio="xMidYMid meet">
<metadata>
Created by potrace 1.14, written by Peter Selinger 2001-2017
</metadata>
<g transform="translate(0.000000,500.000000) scale(0.100000,-0.100000)"
fill="#000000" stroke="none">
<path d="M2490 3670 c-111 -11 -268 -19 -392 -19 -169 -1 -208 -4 -208 -15 0
-8 16 -15 42 -19 51 -7 86 -32 115 -82 47 -83 48 -112 48 -1060 0 -829 -1
-895 -18 -968 -22 -91 -66 -151 -120 -162 -121 -24 -84 -32 181 -38 136 -3
310 -13 387 -23 186 -22 465 -23 561 -1 175 40 282 97 382 202 106 111 158
240 169 414 12 209 -76 390 -247 506 -108 73 -214 106 -360 112 -137 6 -189
-5 -363 -79 -133 -55 -174 -65 -206 -49 -16 9 -21 21 -21 51 0 83 71 126 390
235 392 134 561 247 632 425 18 45 22 75 22 165 0 98 -3 116 -26 167 -50 108
-151 182 -310 229 -105 31 -402 35 -658 9z m468 -40 c183 -52 282 -140 318
-283 35 -134 -8 -261 -124 -368 -77 -71 -185 -136 -397 -241 -225 -111 -293
-160 -326 -233 -24 -53 -24 -86 2 -119 32 -40 96 -36 223 15 149 60 203 78
271 89 225 36 424 -124 490 -395 22 -89 22 -247 1 -339 -39 -164 -148 -301
-298 -374 -136 -66 -195 -77 -408 -77 -188 1 -219 5 -362 51 l-48 16 0 1112 0
1113 102 23 c151 34 199 39 348 35 99 -2 155 -9 208 -25z"/>
<path d="M670 3453 c0 -34 426 -438 650 -618 47 -37 87 -70 90 -73 9 -8 -64
30 -105 56 -22 14 -89 52 -149 84 -60 32 -151 86 -203 120 -52 33 -96 58 -99
55 -9 -9 76 -103 188 -208 138 -128 300 -270 266 -234 -15 17 -89 86 -165 155
-76 69 -163 152 -193 184 l-55 60 50 -30 c28 -16 84 -49 125 -72 41 -24 113
-66 160 -93 118 -69 270 -140 281 -133 6 3 -9 18 -33 33 -148 94 -751 637
-780 703 -14 31 -28 37 -28 11z"/>
<path d="M699 2594 c118 -136 196 -259 270 -424 l11 -25 -5 25 c-21 94 -194
362 -290 450 -30 27 -26 21 14 -26z"/>
<path d="M1345 2593 c6 -5 37 -34 70 -63 85 -74 265 -252 265 -262 0 -4 -9 -8
-20 -8 -11 0 -20 -5 -20 -11 0 -14 52 -7 57 8 6 17 -55 81 -197 207 -113 100
-181 157 -155 129z"/>
<path d="M705 2273 c23 -138 24 -142 21 -70 -4 62 -2 67 13 54 9 -8 83 -74
166 -147 242 -214 526 -435 622 -484 37 -19 43 -20 43 -6 0 6 -5 10 -11 10
-28 0 -497 355 -485 367 2 3 44 -7 93 -21 144 -42 228 -56 338 -56 117 0 218
25 252 62 24 27 46 68 40 74 -2 3 -10 -9 -17 -26 -19 -46 -53 -67 -137 -86
-112 -25 -243 -15 -408 30 -176 49 -215 70 -233 124 -16 50 -26 52 -12 2 5
-19 8 -35 6 -37 -4 -4 -142 115 -250 214 l-48 44 7 -48z"/>
<path d="M733 2095 c0 -22 2 -30 4 -17 2 12 2 30 0 40 -3 9 -5 -1 -4 -23z"/>
<path d="M742 2025 c0 -16 2 -22 5 -12 2 9 2 23 0 30 -3 6 -5 -1 -5 -18z"/>
<path d="M752 1955 c0 -16 2 -22 5 -12 2 9 2 23 0 30 -3 6 -5 -1 -5 -18z"/>
<path d="M762 1885 c0 -16 2 -22 5 -12 2 9 2 23 0 30 -3 6 -5 -1 -5 -18z"/>
<path d="M771 1837 c-1 -23 30 -160 35 -155 2 3 -5 42 -15 89 -11 46 -20 76
-20 66z"/>
<path d="M816 1645 c8 -44 49 -130 73 -154 22 -22 94 -30 105 -12 4 5 -11 7
-34 4 -59 -8 -86 21 -131 141 -11 28 -17 38 -13 21z"/>
</g>
</svg>
